<svg id="esYlj4BrIHh1" xmlns="http://www.w3.org/2000/svg" xmlns:xlink="http://www.w3.org/1999/xlink" viewBox="0 0 150 300" shape-rendering="geometricPrecision" text-rendering="geometricPrecision"><g transform="translate(.000003 0.000003)"><g transform="matrix(2.752396 0 0 3.668238-414.54382-137.285978)"><g transform="matrix(.734664 0 0 1 39.574677-.143581)"><g><g transform="matrix(1.486419 0 0 1-72.845851 0)"><g transform="matrix(1 0 0 0.9684-.350454 3.910577)"><g transform="matrix(1 0 0 1.065262 0-4.548134)"><g><path d="M210.258157,100.083479c2.826-1.406925,7.710361-1.51324,9.833642,0v79.207079h-49.905733v-79.45292c4.272582-1.791861,8.677184-.225367,9.833642.245841c2.746302,1.373354,7.722908.809246,10.079483-.12292c3.127709-1.52612,7.896223-.970319,9.833641.12292c2.620143,1.19165,8.090749,1.043666,10.631463-.12292" transform="translate(-19.147207-61.603019)" fill="#777d93" stroke="#777d93" stroke-width="0.6"/></g></g></g></g></g></g></g></g></svg>
